<mxfile host="app.diagrams.net" agent="Mozilla/5.0 (Windows NT 10.0; Win64; x64) AppleWebKit/537.36 (KHTML, like Gecko) Chrome/137.0.0.0 Safari/537.36" version="27.1.3">
  <diagram name="Page-1" id="2sSgK3ADdVs9xGzzZsUa">
    <mxGraphModel dx="1426" dy="777" grid="1" gridSize="10" guides="1" tooltips="1" connect="1" arrows="1" fold="1" page="1" pageScale="1" pageWidth="850" pageHeight="1100" math="0" shadow="0">
      <root>
        <mxCell id="0" />
        <mxCell id="1" parent="0" />
        <mxCell id="6Sx-9y9NH3U9Gi6V_HQn-1" value="" style="rounded=1;whiteSpace=wrap;html=1;" vertex="1" parent="1">
          <mxGeometry x="280" y="30" width="320" height="1190" as="geometry" />
        </mxCell>
        <mxCell id="6Sx-9y9NH3U9Gi6V_HQn-2" value="Mobile View" style="text;html=1;align=center;verticalAlign=middle;whiteSpace=wrap;rounded=0;" vertex="1" parent="1">
          <mxGeometry x="410" width="60" height="30" as="geometry" />
        </mxCell>
        <mxCell id="6Sx-9y9NH3U9Gi6V_HQn-3" value="&lt;h1&gt;Board Game Reviews&lt;/h1&gt;" style="text;html=1;align=center;verticalAlign=middle;whiteSpace=wrap;rounded=0;" vertex="1" parent="1">
          <mxGeometry x="300" y="50" width="290" height="30" as="geometry" />
        </mxCell>
        <mxCell id="6Sx-9y9NH3U9Gi6V_HQn-4" value="&lt;span style=&quot;font-family: Roboto;&quot;&gt;This is A website dedicated to reviewing and discussing board games of all kinds.&lt;/span&gt;" style="text;html=1;align=center;verticalAlign=middle;whiteSpace=wrap;rounded=0;" vertex="1" parent="1">
          <mxGeometry x="300" y="80" width="290" height="30" as="geometry" />
        </mxCell>
        <mxCell id="6Sx-9y9NH3U9Gi6V_HQn-5" value="" style="rounded=1;whiteSpace=wrap;html=1;" vertex="1" parent="1">
          <mxGeometry x="325" y="140" width="235" height="320" as="geometry" />
        </mxCell>
        <mxCell id="6Sx-9y9NH3U9Gi6V_HQn-6" value="" style="verticalLabelPosition=bottom;verticalAlign=top;html=1;shape=mxgraph.basic.patternFillRect;fillStyle=diagGrid;step=5;fillStrokeWidth=0.2;fillStrokeColor=#dddddd;" vertex="1" parent="1">
          <mxGeometry x="385" y="160" width="120" height="120" as="geometry" />
        </mxCell>
        <mxCell id="6Sx-9y9NH3U9Gi6V_HQn-7" value="Mobile View Image" style="text;html=1;align=center;verticalAlign=middle;whiteSpace=wrap;rounded=0;" vertex="1" parent="1">
          <mxGeometry x="415" y="200" width="60" height="30" as="geometry" />
        </mxCell>
        <mxCell id="6Sx-9y9NH3U9Gi6V_HQn-8" value="Name of the game" style="swimlane;fontStyle=0;childLayout=stackLayout;horizontal=1;startSize=30;horizontalStack=0;resizeParent=1;resizeParentMax=0;resizeLast=0;collapsible=1;marginBottom=0;whiteSpace=wrap;html=1;" vertex="1" parent="1">
          <mxGeometry x="355" y="290" width="195" height="120" as="geometry" />
        </mxCell>
        <mxCell id="6Sx-9y9NH3U9Gi6V_HQn-9" value="What kind of game is it?" style="text;strokeColor=none;fillColor=none;align=left;verticalAlign=middle;spacingLeft=4;spacingRight=4;overflow=hidden;points=[[0,0.5],[1,0.5]];portConstraint=eastwest;rotatable=0;whiteSpace=wrap;html=1;" vertex="1" parent="6Sx-9y9NH3U9Gi6V_HQn-8">
          <mxGeometry y="30" width="195" height="30" as="geometry" />
        </mxCell>
        <mxCell id="6Sx-9y9NH3U9Gi6V_HQn-10" value="How do I play the board game?" style="text;strokeColor=none;fillColor=none;align=left;verticalAlign=middle;spacingLeft=4;spacingRight=4;overflow=hidden;points=[[0,0.5],[1,0.5]];portConstraint=eastwest;rotatable=0;whiteSpace=wrap;html=1;" vertex="1" parent="6Sx-9y9NH3U9Gi6V_HQn-8">
          <mxGeometry y="60" width="195" height="30" as="geometry" />
        </mxCell>
        <mxCell id="6Sx-9y9NH3U9Gi6V_HQn-11" value="What are the rules of the game?" style="text;strokeColor=none;fillColor=none;align=left;verticalAlign=middle;spacingLeft=4;spacingRight=4;overflow=hidden;points=[[0,0.5],[1,0.5]];portConstraint=eastwest;rotatable=0;whiteSpace=wrap;html=1;" vertex="1" parent="6Sx-9y9NH3U9Gi6V_HQn-8">
          <mxGeometry y="90" width="195" height="30" as="geometry" />
        </mxCell>
        <mxCell id="6Sx-9y9NH3U9Gi6V_HQn-12" value="" style="rounded=1;whiteSpace=wrap;html=1;" vertex="1" parent="1">
          <mxGeometry x="325" y="490" width="235" height="320" as="geometry" />
        </mxCell>
        <mxCell id="6Sx-9y9NH3U9Gi6V_HQn-13" value="" style="verticalLabelPosition=bottom;verticalAlign=top;html=1;shape=mxgraph.basic.patternFillRect;fillStyle=diagGrid;step=5;fillStrokeWidth=0.2;fillStrokeColor=#dddddd;" vertex="1" parent="1">
          <mxGeometry x="380" y="510" width="130" height="120" as="geometry" />
        </mxCell>
        <mxCell id="6Sx-9y9NH3U9Gi6V_HQn-14" value="Mobile View Image" style="text;html=1;align=center;verticalAlign=middle;whiteSpace=wrap;rounded=0;" vertex="1" parent="1">
          <mxGeometry x="415" y="555" width="60" height="30" as="geometry" />
        </mxCell>
        <mxCell id="6Sx-9y9NH3U9Gi6V_HQn-15" value="Name of the game" style="swimlane;fontStyle=0;childLayout=stackLayout;horizontal=1;startSize=30;horizontalStack=0;resizeParent=1;resizeParentMax=0;resizeLast=0;collapsible=1;marginBottom=0;whiteSpace=wrap;html=1;" vertex="1" parent="1">
          <mxGeometry x="355" y="650" width="185" height="120" as="geometry" />
        </mxCell>
        <mxCell id="6Sx-9y9NH3U9Gi6V_HQn-16" value="What kind of game is it?" style="text;strokeColor=none;fillColor=none;align=left;verticalAlign=middle;spacingLeft=4;spacingRight=4;overflow=hidden;points=[[0,0.5],[1,0.5]];portConstraint=eastwest;rotatable=0;whiteSpace=wrap;html=1;" vertex="1" parent="6Sx-9y9NH3U9Gi6V_HQn-15">
          <mxGeometry y="30" width="185" height="30" as="geometry" />
        </mxCell>
        <mxCell id="6Sx-9y9NH3U9Gi6V_HQn-17" value="How do I play the board game?" style="text;strokeColor=none;fillColor=none;align=left;verticalAlign=middle;spacingLeft=4;spacingRight=4;overflow=hidden;points=[[0,0.5],[1,0.5]];portConstraint=eastwest;rotatable=0;whiteSpace=wrap;html=1;" vertex="1" parent="6Sx-9y9NH3U9Gi6V_HQn-15">
          <mxGeometry y="60" width="185" height="30" as="geometry" />
        </mxCell>
        <mxCell id="6Sx-9y9NH3U9Gi6V_HQn-18" value="What are the rules of the game?" style="text;strokeColor=none;fillColor=none;align=left;verticalAlign=middle;spacingLeft=4;spacingRight=4;overflow=hidden;points=[[0,0.5],[1,0.5]];portConstraint=eastwest;rotatable=0;whiteSpace=wrap;html=1;" vertex="1" parent="6Sx-9y9NH3U9Gi6V_HQn-15">
          <mxGeometry y="90" width="185" height="30" as="geometry" />
        </mxCell>
        <mxCell id="6Sx-9y9NH3U9Gi6V_HQn-19" value="" style="rounded=1;whiteSpace=wrap;html=1;" vertex="1" parent="1">
          <mxGeometry x="322.5" y="840" width="235" height="320" as="geometry" />
        </mxCell>
        <mxCell id="6Sx-9y9NH3U9Gi6V_HQn-20" value="" style="verticalLabelPosition=bottom;verticalAlign=top;html=1;shape=mxgraph.basic.patternFillRect;fillStyle=diagGrid;step=5;fillStrokeWidth=0.2;fillStrokeColor=#dddddd;" vertex="1" parent="1">
          <mxGeometry x="370" y="860" width="140" height="130" as="geometry" />
        </mxCell>
        <mxCell id="6Sx-9y9NH3U9Gi6V_HQn-21" value="Mobile View Image" style="text;html=1;align=center;verticalAlign=middle;whiteSpace=wrap;rounded=0;" vertex="1" parent="1">
          <mxGeometry x="410" y="910" width="60" height="30" as="geometry" />
        </mxCell>
        <mxCell id="6Sx-9y9NH3U9Gi6V_HQn-23" value="Name of the game" style="swimlane;fontStyle=0;childLayout=stackLayout;horizontal=1;startSize=30;horizontalStack=0;resizeParent=1;resizeParentMax=0;resizeLast=0;collapsible=1;marginBottom=0;whiteSpace=wrap;html=1;" vertex="1" parent="1">
          <mxGeometry x="350" y="1010" width="190" height="120" as="geometry" />
        </mxCell>
        <mxCell id="6Sx-9y9NH3U9Gi6V_HQn-24" value="What kind of game is it?" style="text;strokeColor=none;fillColor=none;align=left;verticalAlign=middle;spacingLeft=4;spacingRight=4;overflow=hidden;points=[[0,0.5],[1,0.5]];portConstraint=eastwest;rotatable=0;whiteSpace=wrap;html=1;" vertex="1" parent="6Sx-9y9NH3U9Gi6V_HQn-23">
          <mxGeometry y="30" width="190" height="30" as="geometry" />
        </mxCell>
        <mxCell id="6Sx-9y9NH3U9Gi6V_HQn-25" value="How do I play the board game?" style="text;strokeColor=none;fillColor=none;align=left;verticalAlign=middle;spacingLeft=4;spacingRight=4;overflow=hidden;points=[[0,0.5],[1,0.5]];portConstraint=eastwest;rotatable=0;whiteSpace=wrap;html=1;" vertex="1" parent="6Sx-9y9NH3U9Gi6V_HQn-23">
          <mxGeometry y="60" width="190" height="30" as="geometry" />
        </mxCell>
        <mxCell id="6Sx-9y9NH3U9Gi6V_HQn-26" value="What are the rules of the game?" style="text;strokeColor=none;fillColor=none;align=left;verticalAlign=middle;spacingLeft=4;spacingRight=4;overflow=hidden;points=[[0,0.5],[1,0.5]];portConstraint=eastwest;rotatable=0;whiteSpace=wrap;html=1;" vertex="1" parent="6Sx-9y9NH3U9Gi6V_HQn-23">
          <mxGeometry y="90" width="190" height="30" as="geometry" />
        </mxCell>
        <mxCell id="6Sx-9y9NH3U9Gi6V_HQn-28" value="" style="line;strokeWidth=2;html=1;" vertex="1" parent="1">
          <mxGeometry x="280" y="1180" width="320" height="10" as="geometry" />
        </mxCell>
        <mxCell id="6Sx-9y9NH3U9Gi6V_HQn-29" value="Footer Information" style="text;html=1;align=center;verticalAlign=middle;whiteSpace=wrap;rounded=0;" vertex="1" parent="1">
          <mxGeometry x="310" y="1190" width="250" height="30" as="geometry" />
        </mxCell>
      </root>
    </mxGraphModel>
  </diagram>
</mxfile>
